<?xml version="1.0" encoding="UTF-8"?>
<svg id="uuid-88fa9b38-e451-4196-92ef-e05e6acf76c5" data-name="Layer 1" xmlns="http://www.w3.org/2000/svg" viewBox="0 0 1371.5 399.12">
  <defs>
    <style>
      .uuid-7169b36b-a10e-4683-9cc8-4f5d8d717a71 {
        fill: #f8763e;
      }

      .uuid-7169b36b-a10e-4683-9cc8-4f5d8d717a71, .uuid-29d61ce9-2733-4c75-871d-1f5b2b97022d, .uuid-c88b7f4d-e309-4c4f-8582-af7eefdd233a, .uuid-43e2aab5-43a1-4e70-9e7e-5b33b711b6eb, .uuid-229195a0-8b8a-4b5a-b7b2-a94fb1efcdc1, .uuid-8d54b171-fe10-4026-8093-b563882a8f3b, .uuid-d88abf83-e4c3-49a2-9407-2ddccdd47edf {
        stroke-width: 0px;
      }

      .uuid-29d61ce9-2733-4c75-871d-1f5b2b97022d {
        fill: #fba038;
      }

      .uuid-c88b7f4d-e309-4c4f-8582-af7eefdd233a {
        fill: #2cbcbc;
      }

      .uuid-43e2aab5-43a1-4e70-9e7e-5b33b711b6eb {
        fill: #fba037;
      }

      .uuid-229195a0-8b8a-4b5a-b7b2-a94fb1efcdc1 {
        fill: #f9763e;
      }

      .uuid-8d54b171-fe10-4026-8093-b563882a8f3b {
        fill: #03638d;
      }

      .uuid-d88abf83-e4c3-49a2-9407-2ddccdd47edf {
        fill: #1f7fa2;
      }
    </style>
  </defs>
  <path class="uuid-c88b7f4d-e309-4c4f-8582-af7eefdd233a" d="M9.15,258.24c-3.26-6.75-4.38-14.14-5.83-21.35-1.65-8.19-2.23-16.61-3.32-25.33h399.05c-1.09,16.25-3.52,32.16-9.02,47.54-7.2,2.09-13.47,6.66-20.63,8.51-8.52,2.21-17.38,1.97-25.16-2.92-10.64-6.68-21.05-6.08-31.68-.3-11.13,6.05-22.35,6.01-33.37-.14-10.21-5.71-20.18-5.73-30.38-.01-11.22,6.29-22.58,6.11-33.82-.05-10.54-5.78-20.73-5.55-31.32.39-10.59,5.93-21.74,5.97-32.44-.03-10.48-5.87-20.7-6.31-31.31-.38-11.35,6.35-22.76,6.16-34.25-.18-9.51-5.25-19.24-5.82-29.05-.27-12.34,6.98-24.75,7.11-36.85-.62-3.36-2.15-8.03-1.23-10.64-4.88Z"/>
  <path class="uuid-d88abf83-e4c3-49a2-9407-2ddccdd47edf" d="M9.15,258.24c4.35,1.43,9.1,1.76,12.94,4.61,2.56,1.9,5.35,3.29,8.56,3.67,7.73.92,15.3,1.94,22.56-2.72,4.35-2.8,9.29-5.02,14.64-5.45,6.24-.5,12.32.81,17.59,3.95,10.93,6.5,21.81,7.14,33.01,1.11,4.54-2.44,9.19-4.55,14.36-5.06,6.66-.66,12.74,1.46,18.41,4.67,10.69,6.05,21.41,6.1,32.06.25,4.69-2.58,9.54-4.5,14.78-4.95,4.62-.4,9.16.87,13.45,2.7,1.52.65,3.02,1.39,4.47,2.18,10.76,5.9,21.54,5.86,32.17-.14,4.4-2.48,9.03-4.11,13.94-4.7,4.12-.5,8.19.54,12.09,1.93,1.71.61,3.38,1.46,4.88,2.48,6.9,4.69,14.65,4.87,22.52,4.39,2.85-.17,5.36-1.5,7.92-2.71,4.75-2.26,9.37-4.55,14.74-5.63,6.53-1.31,12.58-.31,17.54,3.06,7.92,5.39,16.44,5.78,25.24,5.2,3.92-.26,7.5-2.58,10.81-4.56,3.89-2.32,7.78-3.51,12.2-3.4-.66,3.92-2.33,7.51-3.66,11.22-6.59,18.36-16.48,34.88-27.98,50.5-1.35,1.84-2.94,3.51-4.42,5.25-3.31-1.11-6.67-2.13-9.66-4-9.83-6.17-20.2-6.26-29.96-.83-12.44,6.93-24.07,6.9-36.4-.1-9.9-5.62-20.27-4.85-30.04.84-10.79,6.28-21.26,6.33-32.12.08-10.1-5.81-20.55-6.17-30.95-.43-5.46,3.01-11.15,5-17.56,5-6.6,0-12.37-2.19-17.97-5.33-9.14-5.12-18.58-5.42-27.64-.28-12.05,6.83-23.81,7.55-36.01.58-10.3-5.89-20.65-5.34-30.88.56-3.01,1.73-6.11,3.48-9.84,3.06-5.5-5.54-9.63-12.12-13.85-18.59-9.52-14.59-16.64-30.35-22.03-46.9-.14-.44.04-.99.07-1.48Z"/>
  <path class="uuid-8d54b171-fe10-4026-8093-b563882a8f3b" d="M44.96,325.21c6.82-2.27,12.46-7.2,19.77-8.45,6.36-1.09,12.43-.85,18.38,1.93,4.32,2.02,8.32,4.64,13.14,5.75,8.03,1.85,15.57.76,22.34-3.49,8.51-5.35,17.42-5.8,26.67-3.46,2.79.71,5.2,2.85,7.84,4.23,10.63,5.55,20.96,4.51,31.17-1.3,6.8-3.87,13.94-5.36,21.85-3.46,4.58,1.1,8.64,2.92,12.72,5.11,9.14,4.91,18.42,4.7,27.31-.63,11.33-6.8,22.57-7.28,34.14-.65,10.21,5.84,20.56,6.43,31.02.33,8.02-4.68,16.57-6.36,25.75-3.98,1.65.43,3.07,1.2,4.55,1.92,3.53,1.72,6.68,4.25,10.72,4.88,1.13.18,1.68.99,1.64,2.15-25.12,30.74-56.77,51.86-94.49,63.92-13.9,4.44-28.15,7.14-42.75,8.31-8.49.68-16.94,1.04-25.4.66-22.61-1.02-44.49-5.61-65.58-13.92-17.52-6.9-33.59-16.34-48.51-27.71-11.5-8.77-21.79-18.89-31.12-29.96-.52-.61-.78-1.44-1.15-2.17Z"/>
  <path class="uuid-229195a0-8b8a-4b5a-b7b2-a94fb1efcdc1" d="M223.86,141.12c-5.42-1.83-10.37-3.46-15.81-4.4.18-8.13-.66-16.08.75-23.99.14-.81.21-1.65.18-2.48-.61-17.3.95-34.55,1.29-51.83.23-11.61.08-23.28,1.04-34.84.63-7.62.28-15.23.91-23.55,26.75,1.22,51.72,8.35,76.32,20.16-21.44,40.56-43.21,80.63-64.68,120.93Z"/>
  <path class="uuid-7169b36b-a10e-4683-9cc8-4f5d8d717a71" d="M33.35,88.73c15.06-22.67,33.46-40.97,55.83-55.91,24.17,38.95,48.07,77.47,72.21,116.37-4.38,3.49-7.96,7.47-11.88,11.72-38.7-24.05-77.19-47.97-116.16-72.18Z"/>
  <path class="uuid-29d61ce9-2733-4c75-871d-1f5b2b97022d" d="M250.25,160.5c-4.41-3.52-7.44-8.03-12.42-11.03,24.16-38.91,48.19-77.63,72.4-116.62,22.37,15.27,41.08,33.3,55.71,55.94-38.69,23.98-77.15,47.82-115.69,71.71Z"/>
  <path class="uuid-43e2aab5-43a1-4e70-9e7e-5b33b711b6eb" d="M186.41,0c2.01,12.37.98,23.86,1.74,35.26.74,11.12.14,22.26,1.03,33.31.87,10.8-.08,21.62.99,32.32,1.19,11.8.33,23.55.91,35.55-5.11,1.57-10.31,2.35-15.49,4.8-21.5-40.15-42.93-80.18-64.69-120.83C134.89,8.32,159.92,1.76,186.41,0Z"/>
  <path class="uuid-7169b36b-a10e-4683-9cc8-4f5d8d717a71" d="M378.68,110.31c11.92,24.42,18.74,49.57,20.38,76.5h-137.8c-.39-4.05-2.21-7.74-3.35-11.84,40.27-21.56,80.35-43.02,120.77-64.66Z"/>
  <path class="uuid-29d61ce9-2733-4c75-871d-1f5b2b97022d" d="M140.96,174.88c-.34,4.25-2.36,7.89-3.37,11.79-1.67.8-3.36.42-4.99.42-42.14.03-84.29.02-126.43.02-1.17,0-2.33.03-3.5-.04-1.87-.1-2.68-1.18-2.42-2.99,1.34-9.58,2.47-19.18,4.54-28.68,2.14-9.83,5.28-19.3,8.63-28.72,1.87-5.25,4.22-10.37,7.43-15.76,13.74,6.1,26.55,14.06,39.94,20.88,13.34,6.79,26.39,14.15,39.58,21.25,13.36,7.19,26.72,14.36,40.6,21.82Z"/>
  <path class="uuid-29d61ce9-2733-4c75-871d-1f5b2b97022d" d="M1273.84,195.15c1.96,7.11.12,13.81-2.71,20.19-6.81,15.36-19.31,23.13-35.61,23.5-19.8.44-36.15-13.48-39.19-32.73-3.65-23.14,10.55-41.64,32.26-45.53,12.89-2.31,24.63,1.32,34.14,10.88-3.18,3.07-6.25,6.03-9.34,9.01-11.2-9.98-24.61-9.06-33.84-2.13-9.91,7.45-13.13,19.15-8.98,30.09,4.44,11.69,14.83,18.61,28.83,16.85,9.78-1.23,19.09-9.59,20.62-19.3h-34.09c.66-4.42,1.52-8.2,3.08-11.81,7.7-1.14,15.44-.27,23.15-.47,5.77-.15,11.55-.05,17.32-.01,1.58.01,3.4-.51,4.35,1.45Z"/>
  <path class="uuid-29d61ce9-2733-4c75-871d-1f5b2b97022d" d="M942.46,161.79c4.71-.82,8.77-.43,13.12-.37v75.4c-4.77.75-9.53.22-14.31.33-9.82-16.75-19.54-33.34-29.26-49.93-.31.11-.62.21-.94.32v49.36h-12.83v-75.2h14.07c9.58,16.29,19.34,32.86,29.09,49.44.35-.08.7-.15,1.05-.23v-49.11Z"/>
  <path class="uuid-29d61ce9-2733-4c75-871d-1f5b2b97022d" d="M1134.04,236.83c-1.22-.62-.65-1.74-.65-2.62-.04-23.14-.03-46.28-.03-69.43,0-.82-.16-1.68.5-2.43,3.54-1.09,46.24-1.19,50.66-.02.66,4,.3,8.07.19,12.68h-37.82c0,5.97,0,11.42,0,16.87,0,.72.44,1.21,1.12,1.47,7.13.77,14.29.09,21.43.36,1.79.07,3.66-.49,5.38.48,1.83,3.56,1.7,7.63,3.69,11.87h-31.44v18.13h37.69c-.32,4.55,1.15,8.7-.82,12.73-16.63-.48-33.27-.32-49.91-.08Z"/>
  <path class="uuid-29d61ce9-2733-4c75-871d-1f5b2b97022d" d="M732.85,229.64c3.15-3.2,5.93-6.03,8.86-9.01,3.96,2.61,8.21,5.19,13.44,6.11,3.85.68,7.2.04,10.55-1.39,3.3-1.41,5.1-3.98,5.42-7.67.32-3.58-1.93-5.56-4.42-7.2-2.45-1.62-5.27-2.63-8.17-3.33-6.79-1.64-13.17-4.31-19.02-8.11-7.03-4.56-10.42-11.11-9.23-19.47,1.34-9.33,6.46-15.93,15.82-18.28,12.64-3.18,24.2-.45,34.91,7.51-2.38,3.82-5.89,6.29-8.97,9.56-5.06-4.18-10.56-6.84-17.24-6.25-2.53.22-4.79.94-6.93,2.27-5.83,3.59-5.03,11.1-.05,13.92,2.3,1.3,4.67,2.36,7.28,3.06,7.67,2.06,14.87,5.02,21.49,9.71,13.58,9.62,8.22,28.22-1.79,33.98-8.1,4.66-16.71,4.86-25.46,2.56-5.92-1.55-11.52-3.92-16.5-7.96Z"/>
  <path class="uuid-29d61ce9-2733-4c75-871d-1f5b2b97022d" d="M673.83,169.4c-3.04,3.04-5.85,5.86-8.62,8.62-1.87.13-2.71-1.32-3.89-2.14-5.69-3.96-11.84-4.85-18.41-2.72-3.65,1.19-5.77,3.71-6.24,7.59-.49,4.15,2,6.68,5.16,8.29,2.89,1.47,6.05,2.49,9.29,3.31,7.62,1.93,14.45,5.36,20.44,10.72,6.31,5.65,7.2,14.6,4.35,21.89-3.13,8.01-9.3,12.04-17.66,13.38-12.19,1.96-22.72-1.7-32.8-8.76,3.35-3.08,6.38-5.88,9.52-8.78,3.62,3.7,8.83,5.22,14.24,6.17,3.54.62,7.03-.3,10.06-1.92,6.17-3.29,6.38-10.62.53-14.52-2.59-1.73-5.63-2.56-8.64-3.44-6.97-2.04-13.58-4.68-19.8-8.75-13.37-8.74-9.28-28.93,1.86-34.7,9.11-4.71,18.49-4.55,27.97-1.59,4.57,1.43,8.98,3.33,12.63,7.33Z"/>
  <path class="uuid-29d61ce9-2733-4c75-871d-1f5b2b97022d" d="M566.15,232.2v-70.13c4.07-1.11,8.15-.16,12.92-.66v62.73c6.37,1.28,12.81.17,19.2.57,3.44.21,6.93-.61,10.33.5.41,3.65.41,7.3.02,10.95-6.6,1.12-13.25.36-19.87.47-7.14.12-14.28.17-21.19-.06-1.64-1.3-.62-3.08-1.4-4.36Z"/>
  <path class="uuid-29d61ce9-2733-4c75-871d-1f5b2b97022d" d="M1112.65,237.02c-4.51.22-8.62.34-13.03-.06v-74.98c4.44-.73,8.62-.72,13.03-.03v75.07Z"/>
  <path class="uuid-29d61ce9-2733-4c75-871d-1f5b2b97022d" d="M1134.04,236.83c.93-1.05,2.17-.64,3.28-.65,14.46-.02,28.93-.02,43.39,0,1.11,0,2.36-.42,3.23.73-12.32.62-24.64.16-36.96.24-4.31.03-8.65.43-12.95-.32Z"/>
  <path class="uuid-29d61ce9-2733-4c75-871d-1f5b2b97022d" d="M566.15,232.2c1.45.79.38,2.54,1.77,3.95h40.69c-.07.86-.68.99-1.36.99-13.55,0-27.09,0-40.84,0-.69-1.74-.45-3.34-.26-4.95Z"/>
  <path class="uuid-29d61ce9-2733-4c75-871d-1f5b2b97022d" d="M1273.84,195.15c-1.56-1.26-3.42-.98-5.22-.98-13.2,0-26.4,0-39.61,0,.25-1.1,1.14-1,1.95-1,13.49,0,26.98,0,40.47.01,1.34,0,2.85-.22,2.41,1.96Z"/>
  <path class="uuid-29d61ce9-2733-4c75-871d-1f5b2b97022d" d="M608.59,225.2c-9.87-.02-19.74-.03-29.6-.06-.1,0-.24-.16-.29-.28-.16-.31-.02-.56.37-.73,8.57.01,17.15-.03,25.72.09,1.26.02,2.97-.97,3.81.98Z"/>
  <path class="uuid-29d61ce9-2733-4c75-871d-1f5b2b97022d" d="M1174.83,194.19c-7.56,0-15.12.03-22.68-.05-1.39-.01-2.99.67-4.13-.79,8.31-.06,16.62-.12,24.93-.16.76,0,1.72-.2,1.87,1Z"/>
  <path class="uuid-29d61ce9-2733-4c75-871d-1f5b2b97022d" d="M1292.98,199.55c-1.18-22.59,19.69-39.54,38.6-39.56,20.82-.02,39.99,16.26,39.92,39.47-.06,22.11-16.6,39.18-39.37,39.41-23.41.24-40.13-19.67-39.15-39.32ZM1332.2,173.16c-15.37.04-25.86,13.08-26.35,25.5-.5,12.81,10.94,27.3,26.41,27,14.95-.28,26.56-12.6,25.87-26.23.92-13.06-11.22-26.31-25.93-26.27Z"/>
  <path class="uuid-29d61ce9-2733-4c75-871d-1f5b2b97022d" d="M1010.76,235.17c-.97-2.94-.1-5.92-.12-8.87-.15-20.73-.16-41.45-.2-62.18,0-.31.22-.61.33-.92.65-.54,1.39-.94,2.24-.92,12.66.21,25.35-1.04,37.97.9,7.11.76,12.75,4.59,17.49,9.42,14.7,14.99,15.18,36.48,1.65,52.29-2.52,2.94-5.54,5.66-9.27,7.25-6.63,3.49-13.7,4.74-21.15,4.57-7.99-.17-15.98-.02-23.97-.05-1.77,0-3.74.48-4.96-1.47ZM1049.83,162.35c-12.39-1.56-24.85-.5-37.27-.8-.98-.02-2.02.2-1.78,1.65,13.4,0,26.8-.02,40.21-.03-.38-.29-.74-.77-1.16-.83ZM1012.85,237.16c11.26.04,22.54.26,33.79-.11,5.06-.17,10.01-1.72,14.21-4.92-1.37-.09-2.55.41-3.76,1-4.5,2.19-9.41,2.85-14.29,2.98-8.92.24-17.86.03-26.79.1-1.86.01-3.59-.22-5.24-1.03-1,2.42.94,1.98,2.08,1.98ZM1043.12,224.16c6.86-.04,12.78-2.95,17.05-7.86,12.18-14.05,6.11-35.62-11.38-40.34-8.09-2.19-16.38-.51-24.73-.89v49.11c6.49,0,12.78.03,19.06,0Z"/>
  <path class="uuid-29d61ce9-2733-4c75-871d-1f5b2b97022d" d="M818.4,224.33c-2.54,3.83-3.7,8.37-6,12.59-4.51.5-9.14.18-14.55.23,11.48-25.43,22.74-50.38,34.06-75.44,4.89-.19,9.49-.39,14.49.15,11.24,24.9,22.48,49.8,33.88,75.04-5.12.45-9.72.32-14.41.1-1.93-4.29-3.81-8.46-5.72-12.68h-41.76ZM854.07,210.93c-4.99-10.98-9.47-21.75-15.09-32.79-5.19,11.44-9.94,21.93-14.87,32.79h29.96Z"/>
  <path class="uuid-29d61ce9-2733-4c75-871d-1f5b2b97022d" d="M537.74,236.76c-1.95-4.29-3.79-8.34-5.7-12.54h-41.98c-1.88,4.1-3.73,8.13-5.7,12.46-4.42.69-9.03.23-14.55.3,11.48-25.44,22.73-50.37,33.98-75.31,4.98-.45,9.59-.38,14.51-.04,11.27,24.95,22.51,49.85,33.92,75.13h-14.48ZM526.1,210.77c-4.96-10.9-9.76-21.45-15.05-33.08-5.23,11.56-10.01,22.12-14.97,33.08h30.02Z"/>
</svg>